<?xml version="1.0" encoding="UTF-8" standalone="yes"?>
<svg width="500" height="500" viewBox="0 0 500 500" version="1.2" baseProfile="tiny-ps" xmlns="http://www.w3.org/2000/svg">
  <title>George Witteman</title>
  <rect width="100%" height="100%" fill="#004D81"/>
  <path id="G" fill="#ffffff" fill-rule="evenodd" stroke="none" d="M 393 397.54361 C 350.618866 420.514648 303.223877 432 250.813614 432 C 224.284958 432 199.94043 427.651978 177.779297 418.955811 C 155.618164 410.259613 136.530762 397.953888 120.51651 382.038239 C 104.502266 366.12262 91.966049 347.00769 82.907486 324.692993 C 73.848923 302.378265 69.31971 277.602722 69.31971 250.365662 C 69.31971 222.47226 73.848923 197.122437 82.907486 174.315491 C 91.966049 151.508545 104.502266 132.065521 120.51651 115.985748 C 136.530762 99.906036 155.618164 87.51828 177.779297 78.822083 C 199.94043 70.125946 224.284958 65.777893 250.813614 65.777893 C 277.018738 65.777893 301.605896 68.977386 324.575836 75.376465 C 347.545746 81.775543 368.088989 93.178864 386.206146 109.586731 L 341.075287 155.85672 C 330.075592 145.027527 316.730591 136.659637 301.039856 130.752808 C 285.349121 124.845978 268.768982 121.892578 251.298889 121.892578 C 233.50528 121.892578 217.410385 125.092072 203.013748 131.491119 C 188.617096 137.890228 176.242645 146.750336 165.889984 158.071777 C 155.537354 169.393219 147.530334 182.601349 141.868744 197.696625 C 136.207138 212.79187 133.376373 229.035431 133.376373 246.42778 C 133.376373 265.132751 136.207138 282.360779 141.868744 298.112366 C 147.530334 313.863922 155.537354 327.482239 165.889984 338.967773 C 176.242645 350.453308 188.617096 359.477478 203.013748 366.040649 C 217.410385 372.60379 233.50528 375.885315 251.298889 375.885315 C 266.82785 375.885315 281.466919 374.40863 295.216522 371.4552 C 308.966125 368.501801 321.178864 363.907654 331.855011 357.672668 L 331.855011 275.469604 L 261.489716 275.469604 L 261.489716 219.354919 L 393 219.354919 Z"/>
</svg>
